<svg id="Layer_1" data-name="Layer 1" xmlns="http://www.w3.org/2000/svg" viewBox="0 0 176.79 224.18"><defs><style>.cls-1{fill:#231f20;}</style></defs><title>pin1</title><path d="M176.78,135.14c-.3,49.8-39.91,89.39-89.07,89C39.2,223.83-.36,183.45,0,134.65A88.74,88.74,0,0,1,89.71,46.2C137.74,46.55,177.08,86.74,176.78,135.14ZM88.86,54.83c-42.51-.72-79.36,35-80.12,77.71-.8,45,33.84,82.12,77.3,82.86,44.93.77,81.38-34.12,82.18-78.68C169,91.9,133.85,55.6,88.86,54.83Z"/><path d="M53.91,149.42a14.25,14.25,0,0,1-14.32-14.18,14.48,14.48,0,0,1,29-.07A14.35,14.35,0,0,1,53.91,149.42Z"/><path d="M122.43,149.41a14.07,14.07,0,0,1-14.16-14.26c.14-8,6.83-14.56,14.61-14.32a14.7,14.7,0,0,1,14.25,14.44A14.31,14.31,0,0,1,122.43,149.41Z"/><path class="cls-1" d="M78.32,36.15h7.92V10.7h-6.3V7.83A20.87,20.87,0,0,0,87.3,5.29h3.4V36.15h7.14v3.72H78.32Z"/></svg>