<svg id="Layer_1" data-name="Layer 1" xmlns="http://www.w3.org/2000/svg" viewBox="0 0 176.79 224.18"><defs><style>.cls-1{fill:#231f20;}</style></defs><title>pin2</title><path d="M176.78,135.14c-.3,49.8-39.91,89.39-89.07,89C39.2,223.83-.36,183.45,0,134.65A88.74,88.74,0,0,1,89.71,46.2C137.74,46.55,177.08,86.74,176.78,135.14ZM88.86,54.83c-42.51-.72-79.36,35-80.12,77.71-.8,45,33.84,82.12,77.3,82.86,44.93.77,81.38-34.12,82.18-78.68C169,91.9,133.85,55.6,88.86,54.83Z"/><path d="M53.91,149.42a14.25,14.25,0,0,1-14.32-14.18,14.48,14.48,0,0,1,29-.07A14.35,14.35,0,0,1,53.91,149.42Z"/><path d="M122.43,149.41a14.07,14.07,0,0,1-14.16-14.26c.14-8,6.83-14.56,14.61-14.32a14.7,14.7,0,0,1,14.25,14.44A14.31,14.31,0,0,1,122.43,149.41Z"/><path class="cls-1" d="M76.22,37.23C86.61,26.87,92.49,20.64,92.49,15c0-3.95-2.15-6.75-6.56-6.75-2.89,0-5.38,1.83-7.35,4.15L76,9.89c2.89-3.17,6-5.25,10.49-5.25,6.39,0,10.38,4,10.38,10.18,0,6.49-6,12.94-14.12,21.51,1.87-.15,4-.3,5.82-.3h10v3.84H76.22Z"/></svg>