<svg id="Layer_1" data-name="Layer 1" xmlns="http://www.w3.org/2000/svg" viewBox="0 0 176.79 224.18"><defs><style>.cls-1{fill:#231f20;}</style></defs><title>pin3</title><path d="M176.78,135.14c-.3,49.8-39.91,89.39-89.07,89C39.2,223.83-.36,183.45,0,134.65A88.74,88.74,0,0,1,89.71,46.2C137.74,46.55,177.08,86.74,176.78,135.14ZM88.86,54.83c-42.51-.72-79.36,35-80.12,77.71-.8,45,33.84,82.12,77.3,82.86,44.93.77,81.38-34.12,82.18-78.68C169,91.9,133.85,55.6,88.86,54.83Z"/><path d="M53.91,149.42a14.25,14.25,0,0,1-14.32-14.18,14.48,14.48,0,0,1,29-.07A14.35,14.35,0,0,1,53.91,149.42Z"/><path d="M122.43,149.41a14.07,14.07,0,0,1-14.16-14.26c.14-8,6.83-14.56,14.61-14.32a14.7,14.7,0,0,1,14.25,14.44A14.31,14.31,0,0,1,122.43,149.41Z"/><path class="cls-1" d="M75.49,35.64l2.24-2.91a11.79,11.79,0,0,0,8.83,4.08c4.2,0,7.18-2.46,7.18-6.34,0-4.11-2.83-6.86-11-6.86V20.19c7.32,0,9.81-2.82,9.81-6.44,0-3.37-2.31-5.48-6-5.48a10.42,10.42,0,0,0-7.37,3.51L76.77,9A14.28,14.28,0,0,1,86.7,4.64c6,0,10.35,3.19,10.35,8.78,0,4.16-2.53,6.83-6.29,8.21v.22c4.18,1,7.51,4,7.51,8.79,0,6.16-5.09,9.88-11.42,9.88A14.58,14.58,0,0,1,75.49,35.64Z"/></svg>