<svg id="Layer_1" data-name="Layer 1" xmlns="http://www.w3.org/2000/svg" viewBox="0 0 1214.18 740"><title>socket</title><path d="M72.61,129.78c0-14.47-.06-28.31,0-42.15A159.75,159.75,0,0,1,73.32,70C75.68,49.84,92.78,34.55,113,33.82A9.93,9.93,0,0,0,119,31.34a44.57,44.57,0,0,1,31.77-12.41q60.65.12,121.28.1,125.33,0,250.66-.09,168.63,0,337.28-.11c14.59,0,27.35,3.37,37.57,14.27a6.6,6.6,0,0,0,3.38,1.54,41.83,41.83,0,0,1,33.37,40.68c0,14.25.06,28.49,0,42.74,0,2.59.71,3.51,3.39,3.7,24.18,1.72,48.35,3.59,72.52,5.41A12.51,12.51,0,0,1,1022,138.71c.08.87.17,1.74.29,3,5.24,0,10.34,0,15.45,0,28.93.25,56.55,6.28,82.1,20,45.57,24.56,73.43,62.28,81.88,113.55,11.82,71.67-29,143.59-96.48,170.7a156.68,156.68,0,0,1-58.94,11.25q-186.16.08-372.32,0-155.55,0-311.11.05c-29.45,0-51,13.71-64.39,39.74-19.22,37.48,1.24,85.71,41.53,98.05a74.89,74.89,0,0,0,21.52,3.31q191.18.28,382.34.21c3.2,0,4.5-1,5.66-4,10.45-27.3,30.05-44,58.8-49.68a72.27,72.27,0,0,1,13.4-1.08c19.77-.11,39.53,0,59.3,0h4.29c2.21-8.13,6.49-14.35,14-18.12,16.44-8.26,36.19,3.52,36.59,21.91.12,5.61,0,11.22,0,17.29h72c7.09,0,14.06,6.88,14.1,13.86a44.57,44.57,0,0,0,.05,6.54c1.13,7.44-1.58,13.07-7.83,17a12.8,12.8,0,0,1-6.12,2.22c-22.46.15-44.92.1-67.38.1h-4.51v34.57h4.42q33.69,0,67.38,0c7.07,0,13.94,6.85,14,13.91a50.92,50.92,0,0,0,.05,6.54c1,7.06-1.5,12.37-7.25,16.59a10.78,10.78,0,0,1-6.88,2.56c-22.33-.09-44.67,0-67,0h-5c0,5.67,0,10.88,0,16.1-.1,13.48-8.61,23.37-21.9,25.53a25.16,25.16,0,0,1-26.65-14.66c-.76-1.75-1.35-3.57-2.15-5.7H823.4c-34.84,0-62.31-19.13-74.18-51.85-1.15-3.17-3.07-3.11-5.57-3.11q-101.45,0-202.91,0-89.13,0-178.27,0a117.19,117.19,0,0,1-31.05-230.22,123.65,123.65,0,0,1,33.12-4q340,0,680,.17c48.18.07,90-29.32,106-72.49,18.11-48.85,1.32-103.68-45.8-132.09-20.61-12.44-43.1-18.06-67-18.37-5.1-.07-10.21,0-15.24,0-1.81,11.17-5,13.9-15.83,14.69-23.92,1.73-47.82,3.62-72.15,5.48-.07,1.45-.19,2.8-.19,4.16,0,13.86,0,27.72,0,41.59a42,42,0,0,1-33.76,41.19,8.12,8.12,0,0,0-3.84,2.21,43.8,43.8,0,0,1-32.12,13.34q-354.42,0-708.84.11c-14.7,0-27.67-2.91-38.08-13.89-.72-.77-2.29-1-3.48-1-24-.9-41.39-18.82-41.55-43.08-.11-15.92,0-31.83,0-47.74v-5.16c-5.07,0-9.9-.06-14.73,0-7.61.12-15.15-.13-22.1-3.78-15-7.84-22-23.52-18-40.27,3.54-15,17.38-25.8,33.58-26.09C58.26,129.68,65.17,129.78,72.61,129.78ZM503.46,286.1H884.23c2.95,0,5.91.1,8.85,0,18.29-.8,31.33-14.38,31.33-32.68q0-88.36,0-176.72a41.09,41.09,0,0,0-.52-7.27c-2.36-13-14.5-25.92-33.51-25.88q-168.44.33-336.87.1h-313q-62.37,0-124.74,0c-19.16,0-33.14,13.66-33.17,32.47q-.14,88.74,0,177.48a36.12,36.12,0,0,0,1.94,11.28c3.68,10.9,14.75,21.38,33.14,21.35Q310.58,285.9,503.46,286.1Zm518.72-108.65c11.65.71,23,.85,34.12,2.2,27.17,3.27,51.7,13.34,71.89,32,35.21,32.55,46.25,72.87,35,119-12.75,52.39-61.58,89.93-115.74,89.94q-341.9,0-683.78.12a120.47,120.47,0,0,0-25.54,2.75C282,435.85,245.5,492.68,257.25,549,268,600.3,311,635.34,363.36,635.34H745.28V608.51H362.45c-43.6,0-78.44-33.07-80.68-76.62-2.36-45.89,33.86-84.46,79.74-84.47q342.66-.09,685.33,0a142.27,142.27,0,0,0,49.73-8.68c67.89-25.08,108-94,94.78-165-10.89-58.34-46.95-95.26-102.37-114.13-20.91-7.12-42.65-8.52-64.57-8a15,15,0,0,0-2.23.39ZM884.85,554c-1.33-.1-2.33-.23-3.33-.23-20.4,0-40.8-.23-61.19.12a74.14,74.14,0,0,0-18.52,2.86c-28,7.84-46.83,34.56-47.09,65.35-.33,38.49,30.8,68.8,67.86,68.1,19.36-.36,38.74,0,58.12-.07,1.35,0,2.7-.12,4.15-.19Zm10,68V630c0,21.42,0,42.85,0,64.27,0,7.75,4.35,13.83,11,15.84,10.66,3.22,20.44-4.56,20.45-16.35q0-61.57,0-123.15c0-7.19.1-14.37,0-21.56-.15-9.62-7.42-16.53-16.77-16.11-8.44.38-14.68,7.32-14.7,16.62Q894.8,585.78,894.86,622ZM881.28,33.71c-5.33-3.89-11.23-5-17.5-5q-152.28,0-304.55,0-203.86,0-407.73.08a41.21,41.21,0,0,0-9.16.81c-3.18.73-6.19,2.18-9.27,3.31l.37.84ZM881,296.22H132.46a38.15,38.15,0,0,0,19.47,4.86q353.58,0,707.18,0c2.31,0,4.62.11,6.92,0C871.41,300.72,876.54,299.49,881,296.22Zm76.4-99.64,31.15-2.36c0-4.15-.06-8,0-11.79.1-4.46,2.76-7.41,6.57-7.47s6.77,3,6.85,7.65c.07,3.43,0,6.85,0,10.5,2.75-.2,5.13,0,7.27-.66,1.19-.35,2.82-2,2.83-3.17q.29-24.42.05-48.86a4,4,0,0,0-2.08-3.09,53.92,53.92,0,0,0-8.07-1c0,4,0,7.3,0,10.62-.08,4.7-2.79,7.77-6.76,7.74s-6.58-3-6.68-7.77c-.07-3.68,0-7.37,0-11.41l-31.16-2.44c0,5.27.06,9.87,0,14.46-.07,4.2-2.73,7-6.49,7.15s-6.67-2.85-6.81-7.21c-.07-2.31,0-4.62,0-6.93,0-8.77,0-8.77-8.69-8.92-.22,0-.44.19-.82.37v66c2,0,3.84-.09,5.61,0,2.9.18,4.18-.82,4-4-.26-3.83-.1-7.7,0-11.54.08-4.42,2.73-7.41,6.52-7.52s6.74,3.06,6.79,7.67C957.47,187.07,957.43,191.54,957.43,196.58ZM935.94,648.85c0,6.34,0,12.09,0,17.84,0,2.25,1.26,2.41,3,2.41,22.32,0,44.64,0,67,0a6.66,6.66,0,0,0,6.42-6.62c0-2.05,0-4.11,0-6.16,0-5.51-2-7.42-7.66-7.43H935.94Zm.22-54.48a6.29,6.29,0,0,0,1.19.35q34.42,0,68.85,0c3.35,0,6-3,6.1-6.48,0-2.06,0-4.11,0-6.16,0-5.51-2-7.45-7.64-7.46H940c-1.23,0-2.47.13-3.88.22ZM72.4,139.58c-7.59,0-15-.34-22.37.07A25.17,25.17,0,0,0,26.38,164a24.73,24.73,0,0,0,22.41,25.71c4.69.51,9.46.29,14.2.36,3.13,0,6.26,0,9.41,0Z"/><path d="M814.37,86.56H894V242.78H814.37Zm69.74,146.58V96.61h-59.9V233.14Z"/><path d="M776.78,621.9a48.29,48.29,0,0,1,48-48.53c26.68-.25,48.21,21.53,48.35,48.92.13,26.13-21.39,47.84-47.58,48A48,48,0,0,1,776.78,621.9Zm86.64.17a38.92,38.92,0,0,0-38.12-38.91c-20.94-.24-38.6,17.13-38.82,38.19a38.78,38.78,0,0,0,38.1,39.28C845.62,660.94,863.2,643.49,863.42,622.07Z"/><path d="M966.46,164.8c0-3.58-.08-7.16,0-10.74.12-4.2,2.84-6.87,6.7-6.79a6.57,6.57,0,0,1,6.49,6.69q.17,10.93,0,21.87a6.77,6.77,0,0,1-6.57,6.67,6.66,6.66,0,0,1-6.62-6.57c-.14-3.7,0-7.42,0-11.13Z"/><path d="M49.34,150.1a14.43,14.43,0,0,1,14.82,14.72,14.69,14.69,0,1,1-29.38.25A14.39,14.39,0,0,1,49.34,150.1Zm5,14.76a5.07,5.07,0,0,0-4.92-5.08,4.94,4.94,0,0,0-4.83,5.34c.22,3.1,2.14,4.69,5.06,4.6S54.21,167.68,54.36,164.86Z"/><path d="M829.75,102.42h48.79V227.06H829.75Zm9.94,67.36v47.73h29.07V169.78Zm29.11-10.19V112.11H839.64v47.48Z"/><path d="M854,627.38H830.74v14.31l-35.26-24.5c0-.26.07-.52.11-.79h23.64V602.18l35,24.37Z"/><path d="M933.6,626a7.33,7.33,0,0,0,.95.21q27.32,0,54.63,0c2.66,0,4.79-1.83,4.84-3.9,0-1.23,0-2.47,0-3.7,0-3.31-1.58-4.48-6.07-4.48H936.68c-1,0-1.95.08-3.08.13l-.19-6h57.15c5.63,0,11.16,4.13,11.19,8.32a20.62,20.62,0,0,0,0,3.93c.9,4.47-1.25,7.86-6.21,10.2a12.25,12.25,0,0,1-4.86,1.34c-17.82.09-35.64,0-53.47.06h-3.57Z"/></svg>